# File created by Blade
# Date/Time:  Fri Jan 16 19:00:24 2015
# Frame Rate: 120.000 fps
#------------------------------------------------------
:FULLY-SPECIFIED
:DEGREES
3898
root 24.255085 35.575874 -22.923059 183.827462 7.323685 -178.169890
Spine -6.240917 1.521878 -1.221694
Head 5.731648 -2.036388 10.557833
LeftShoulder -9.807317 -28.112730 16.220119
LeftArm -3.189917 -5.993175 -11.531006
LeftForeArm -6.211911 -0.000000 -2.275089
LeftHand -9.811459 -0.000000 -3.618015
LeftHandThumb1 -26.253704 0.000000 33.147579
RightShoulder -12.263218 -8.635766 -4.327752
RightArm 7.484980 39.993956 21.198792
RightForeArm -26.123708 0.000000 12.415046
RightHand -7.024728 0.000000 1.803022
RightHandThumb1 -24.326973 -0.000000 -32.862282
LeftUpLeg -0.139627 14.662655 8.844293
LeftLeg 6.038901 -0.000000 -0.000000
LeftFoot -22.286281 30.172835 -17.840863
LeftToeBase 23.733837 -0.000000 -0.000000
RightUpLeg 0.760135 -6.083677 2.268387
RightLeg -4.699852 -0.000000 0.000000
RightFoot -16.767071 -26.343320 11.944586
RightToeBase 23.974911 -0.000000 -0.000000
3899
root 24.186261 35.565829 -22.950432 183.587668 7.091143 -178.037587
Spine -6.029907 1.492547 -1.085185
Head 5.787723 -2.227529 10.601499
LeftShoulder -9.846496 -28.070517 16.233363
LeftArm -3.229143 -6.308145 -11.497595
LeftForeArm -6.531242 -0.000000 -2.447097
LeftHand -9.750770 -0.000000 -3.744994
LeftHandThumb1 -26.253704 0.000000 33.147579
RightShoulder -12.227131 -8.787948 -4.254513
RightArm 7.891067 39.915250 21.356548
RightForeArm -26.629524 0.000000 12.712866
RightHand -7.179940 -0.000000 1.566098
RightHandThumb1 -24.326973 -0.000000 -32.862282
LeftUpLeg 0.238466 14.355599 8.940349
LeftLeg 5.714372 -0.000000 -0.000000
LeftFoot -22.627294 30.762786 -18.417679
LeftToeBase 24.256321 -0.000000 -0.000000
RightUpLeg 1.027096 -6.146486 2.254028
RightLeg -4.619164 -0.000000 0.000000
RightFoot -16.870355 -26.436252 12.080298
RightToeBase 24.026421 -0.000000 -0.000000
3900
root 24.116105 35.556062 -22.974520 183.347461 6.875645 -177.913405
Spine -5.811254 1.513526 -0.987434
Head 5.839292 -2.398112 10.680104
LeftShoulder -9.869278 -28.009284 16.292867
LeftArm -3.263879 -6.550517 -11.531010
LeftForeArm -6.889680 -0.000000 -2.556139
LeftHand -9.765131 -0.000000 -3.843880
LeftHandThumb1 -26.253704 0.000000 33.147579
RightShoulder -12.150369 -8.869001 -4.153432
RightArm 8.017230 39.546525 21.285425
RightForeArm -26.878518 -0.000000 13.059822
RightHand -7.033653 -0.000000 1.500000
RightHandThumb1 -24.326973 -0.000000 -32.862282
LeftUpLeg 0.620450 14.124600 9.023651
LeftLeg 5.465873 -0.000000 -0.000000
LeftFoot -22.863108 30.985241 -18.760040
LeftToeBase 24.381855 -0.000000 -0.000000
RightUpLeg 1.278267 -6.187745 2.237350
RightLeg -4.522543 -0.000000 0.000000
RightFoot -16.984086 -26.560407 12.208328
RightToeBase 23.993138 -0.000000 -0.000000
3901
root 24.035034 35.546967 -22.988832 183.084675 6.633226 -177.867140
Spine -5.526481 1.519224 -0.987866
Head 5.796127 -2.581278 10.806531
LeftShoulder -9.866027 -27.855909 16.302376
LeftArm -3.214020 -6.931162 -11.546556
LeftForeArm -7.200810 -0.000000 -2.694536
LeftHand -9.772816 -0.000000 -3.985252
LeftHandThumb1 -26.253704 0.000000 33.147579
RightShoulder -12.083740 -8.960458 -4.032338
RightArm 8.120263 39.253781 21.231791
RightForeArm -26.933826 -0.000000 13.437083
RightHand -7.065816 -0.000000 1.396593
RightHandThumb1 -24.326973 -0.000000 -32.862282
LeftUpLeg 1.044564 13.807414 8.998911
LeftLeg 5.152328 -0.000000 -0.000000
LeftFoot -22.994187 31.055698 -18.639475
LeftToeBase 24.403046 -0.000000 -0.000000
RightUpLeg 1.507347 -6.266533 2.131094
RightLeg -4.391806 -0.000000 0.000000
RightFoot -17.086261 -26.660882 12.330326
RightToeBase 23.827440 -0.000000 -0.000000
3902
root 23.948907 35.540232 -23.015106 182.758934 6.293130 -177.830338
Spine -5.193498 1.450880 -0.975212
Head 5.798893 -2.769980 10.893083
LeftShoulder -9.882823 -27.732761 16.309907
LeftArm -3.120596 -7.128521 -11.608622
LeftForeArm -7.588820 -0.000000 -2.823051
LeftHand -9.780169 0.000000 -4.159972
LeftHandThumb1 -26.253704 0.000000 33.147579
RightShoulder -12.073926 -8.994031 -3.910926
RightArm 8.263016 38.809502 21.132275
RightForeArm -27.023423 -0.000000 13.651332
RightHand -7.282976 -0.000000 1.172227
RightHandThumb1 -24.326973 -0.000000 -32.862282
LeftUpLeg 1.484455 13.749974 8.986817
LeftLeg 4.880667 -0.000000 -0.000000
LeftFoot -23.087924 30.813779 -18.554724
LeftToeBase 24.373535 -0.000000 -0.000000
RightUpLeg 1.869649 -6.435630 1.992396
RightLeg -4.340952 -0.000000 0.000000
RightFoot -17.158208 -26.767361 12.335433
RightToeBase 24.193907 -0.000000 -0.000000
3903
root 23.860430 35.533692 -23.027303 182.507748 6.021232 -177.810484
Spine -4.926193 1.434554 -1.013902
Head 5.741432 -2.982837 10.993465
LeftShoulder -9.871737 -27.618825 16.334323
LeftArm -3.047850 -7.322560 -11.650026
LeftForeArm -7.993016 0.000000 -2.946530
LeftHand -9.775085 -0.000000 -4.420196
LeftHandThumb1 -26.253704 0.000000 33.147579
RightShoulder -12.015791 -9.077328 -3.811729
RightArm 8.355504 38.694084 21.137182
RightForeArm -27.126469 0.000000 14.018206
RightHand -7.391306 -0.000000 1.175032
RightHandThumb1 -24.326973 -0.000000 -32.862282
LeftUpLeg 1.827009 13.956798 8.947291
LeftLeg 4.595439 -0.000000 -0.000000
LeftFoot -23.102182 30.615894 -18.454329
LeftToeBase 24.476308 -0.000000 -0.000000
RightUpLeg 2.105210 -6.503221 1.857879
RightLeg -4.259700 -0.000000 0.000000
RightFoot -17.254799 -27.005915 12.401000
RightToeBase 24.032178 -0.000000 -0.000000
3904
root 23.769417 35.529150 -23.042261 182.257663 5.667936 -177.821372
Spine -4.683331 1.401360 -1.102915
Head 5.746514 -3.249507 11.108647
LeftShoulder -9.786626 -27.536470 16.311172
LeftArm -2.922584 -7.705882 -11.665322
LeftForeArm -8.133525 -0.000000 -3.133584
LeftHand -9.655182 -0.000000 -4.492976
LeftHandThumb1 -26.253704 0.000000 33.147579
RightShoulder -12.029199 -9.119527 -3.682992
RightArm 8.458378 38.623593 21.137990
RightForeArm -27.370453 -0.000000 14.228578
RightHand -7.231991 -0.000000 0.935350
RightHandThumb1 -24.326973 -0.000000 -32.862282
LeftUpLeg 2.150393 14.157601 8.876739
LeftLeg 4.268861 -0.000000 -0.000000
LeftFoot -23.044553 30.374435 -18.279176
LeftToeBase 24.729247 -0.000000 -0.000000
RightUpLeg 2.363680 -6.669236 1.685697
RightLeg -4.199391 -0.000000 0.000000
RightFoot -17.323850 -27.174612 12.462728
RightToeBase 23.985002 -0.000000 -0.000000
